ModelForces
version=1
nRows=4
nColumns=157
inDegrees=no

This file contains the forces exerted on a model during a simulation.

A force is a generalized force, meaning that it can be either a force (N) or a torque (Nm).

Units are S.I. units (second, meters, Newtons, ...)
Angles are in degrees.

endheader
time	glut_med1_r	glut_med2_r	glut_med3_r	glut_min1_r	glut_min2_r	glut_min3_r	semimem_r	semiten_r	bifemlh_r	bifemsh_r	sar_r	add_long_r	add_brev_r	add_mag1_r	add_mag2_r	add_mag3_r	tfl_r	pect_r	grac_r	glut_max1_r	glut_max2_r	glut_max3_r	iliacus_r	psoas_r	quad_fem_r	gem_r	peri_r	rect_fem_r	vas_med_r	vas_int_r	vas_lat_r	med_gas_r	lat_gas_r	soleus_r	tib_post_r	flex_dig_r	flex_hal_r	tib_ant_r	per_brev_r	per_long_r	per_tert_r	ext_dig_r	ext_hal_r	glut_med1_l	glut_med2_l	glut_med3_l	glut_min1_l	glut_min2_l	glut_min3_l	semimem_l	semiten_l	bifemlh_l	bifemsh_l	sar_l	add_long_l	add_brev_l	add_mag1_l	add_mag2_l	add_mag3_l	tfl_l	pect_l	grac_l	glut_max1_l	glut_max2_l	glut_max3_l	iliacus_l	psoas_l	quad_fem_l	gem_l	peri_l	rect_fem_l	vas_med_l	vas_int_l	vas_lat_l	med_gas_l	lat_gas_l	soleus_l	tib_post_l	flex_dig_l	flex_hal_l	tib_ant_l	per_brev_l	per_long_l	per_tert_l	ext_dig_l	ext_hal_l	ercspn_r	ercspn_l	intobl_r	intobl_l	extobl_r	extobl_l	femur_lat_meniscii_r.femur_lat_r.force.X	femur_lat_meniscii_r.femur_lat_r.force.Y	femur_lat_meniscii_r.femur_lat_r.force.Z	femur_lat_meniscii_r.femur_lat_r.torque.X	femur_lat_meniscii_r.femur_lat_r.torque.Y	femur_lat_meniscii_r.femur_lat_r.torque.Z	femur_lat_meniscii_r.meniscus_lat_r.force.X	femur_lat_meniscii_r.meniscus_lat_r.force.Y	femur_lat_meniscii_r.meniscus_lat_r.force.Z	femur_lat_meniscii_r.meniscus_lat_r.torque.X	femur_lat_meniscii_r.meniscus_lat_r.torque.Y	femur_lat_meniscii_r.meniscus_lat_r.torque.Z	femur_med_meniscii_r.femur_med_r.force.X	femur_med_meniscii_r.femur_med_r.force.Y	femur_med_meniscii_r.femur_med_r.force.Z	femur_med_meniscii_r.femur_med_r.torque.X	femur_med_meniscii_r.femur_med_r.torque.Y	femur_med_meniscii_r.femur_med_r.torque.Z	femur_med_meniscii_r.meniscus_med_r.force.X	femur_med_meniscii_r.meniscus_med_r.force.Y	femur_med_meniscii_r.meniscus_med_r.force.Z	femur_med_meniscii_r.meniscus_med_r.torque.X	femur_med_meniscii_r.meniscus_med_r.torque.Y	femur_med_meniscii_r.meniscus_med_r.torque.Z	femur_med_tibia_r.tibia_upper_r.force.X	femur_med_tibia_r.tibia_upper_r.force.Y	femur_med_tibia_r.tibia_upper_r.force.Z	femur_med_tibia_r.tibia_upper_r.torque.X	femur_med_tibia_r.tibia_upper_r.torque.Y	femur_med_tibia_r.tibia_upper_r.torque.Z	femur_med_tibia_r.femur_med_r.force.X	femur_med_tibia_r.femur_med_r.force.Y	femur_med_tibia_r.femur_med_r.force.Z	femur_med_tibia_r.femur_med_r.torque.X	femur_med_tibia_r.femur_med_r.torque.Y	femur_med_tibia_r.femur_med_r.torque.Z	femur_lat_tibia_r.tibia_upper_r.force.X	femur_lat_tibia_r.tibia_upper_r.force.Y	femur_lat_tibia_r.tibia_upper_r.force.Z	femur_lat_tibia_r.tibia_upper_r.torque.X	femur_lat_tibia_r.tibia_upper_r.torque.Y	femur_lat_tibia_r.tibia_upper_r.torque.Z	femur_lat_tibia_r.femur_lat_r.force.X	femur_lat_tibia_r.femur_lat_r.force.Y	femur_lat_tibia_r.femur_lat_r.force.Z	femur_lat_tibia_r.femur_lat_r.torque.X	femur_lat_tibia_r.femur_lat_r.torque.Y	femur_lat_tibia_r.femur_lat_r.torque.Z	aACL_R	pACL_R	aPCL_R	pPCL_R	aMCL_R	mMCL_R	pMCL_R	aLCL_R	mLCL_R	pLCL_R	ground_prescribedForce_fx	ground_prescribedForce_fy	ground_prescribedForce_fz	ground_prescribedForce_px	ground_prescribedForce_py	ground_prescribedForce_pz
      0.00000000	     37.48087652	     28.28714471	     30.25598133	     13.28977762	     14.47626353	     15.91713841	     41.79832242	     20.39245219	     37.76820936	     36.00882819	      7.58878436	     27.93927808	     20.68957741	     14.51222487	     12.16230296	     19.66717628	     12.54860288	     11.16605282	      7.77630093	     18.12681708	     27.55933735	     20.56469162	     63.94906620	     55.74758807	     18.09791099	      9.16719286	     20.03897647	     52.57271277	     32.47449261	     33.07778270	     40.77186739	     67.48690598	     31.69931831	    152.72720615	     92.44658902	     14.93332009	     15.26895791	     41.82851940	     21.62523106	     46.40594865	      8.86060096	     25.04818486	      7.96045570	     37.48087652	     28.28714471	     30.25598133	     13.28977762	     14.47626353	     15.91713841	     42.06683902	     20.39635155	     37.67631238	     36.01822118	      7.59254209	     27.93927808	     20.68957741	     14.51222487	     12.16230296	     19.66717628	     12.58139899	     11.16605282	      7.78214370	     18.12681708	     27.55933735	     20.56469162	     63.94906620	     55.74758807	     18.09791099	      9.16719286	     20.03897647	     52.59637061	     32.48786114	     37.22481259	     39.87514307	     67.71424671	     31.64857027	    152.72720615	     92.44658902	     14.93332009	     15.26895791	     41.82851940	     21.62523106	     46.40594865	      8.86060096	     25.04818486	      7.96045570	    124.99446086	    124.99446086	     44.97041513	     44.97041513	     60.98287244	     60.98287244	    107.93131584	    215.77786122	      5.85434349	     -7.98445785	      2.78079296	     45.02822510	   -107.93131584	   -215.77786122	     -5.85434349	      6.86097074	     -3.34228263	     -3.62025483	    -34.97636351	     99.84144436	     -6.41891721	      4.48690952	      0.77086048	    -12.33023397	     34.97636351	    -99.84144436	      6.41891721	     -1.49185670	     -0.59213067	     -1.20965297	      0.00000000	      0.00000000	      0.00000000	      0.00000000	      0.00000000	      0.00000000	      0.00000000	      0.00000000	      0.00000000	      0.00000000	      0.00000000	      0.00000000	      0.00000000	      0.00000000	      0.00000000	      0.00000000	      0.00000000	      0.00000000	      0.00000000	      0.00000000	      0.00000000	      0.00000000	      0.00000000	      0.00000000	      5.09062031	     10.77177919	      0.00000000	      0.00000000	      0.00000000	      3.83340630	     15.82680930	      0.67560592	      0.00000000	      1.56026721	    110.00000000	      0.00000000	      0.00000000	      0.03000000	     -0.03000000	      0.00000000
      0.00088796	     37.47283647	     28.27376837	     30.24403762	     13.27364102	     14.46719049	     15.91355790	     41.51411690	     20.22020367	     37.55111815	     35.23733399	      7.43791801	     27.92842827	     20.65240075	     14.50543889	     12.15824113	     19.66383260	     12.48704787	     11.15588225	      7.64625330	     18.11968629	     27.54866785	     20.55799104	     63.93067180	     55.73699203	     18.08587491	      9.16554031	     20.03752748	     52.22054231	     31.82319829	     32.43174092	     40.08241222	     66.42567902	     31.20733560	    150.34207500	     92.30732046	     14.98350173	     15.29409088	     42.57223579	     21.47294175	     46.20915582	      9.01806831	     25.15431549	      8.00582231	     37.47283647	     28.27376837	     30.24403762	     13.27364102	     14.46719049	     15.91355790	     42.06325301	     20.39150478	     37.67230831	     35.99498568	      7.58159640	     27.92842827	     20.65240075	     14.50543889	     12.15824113	     19.66383260	     12.58055990	     11.15588225	      7.77579401	     18.11968629	     27.54866785	     20.55799104	     63.93067180	     55.73699203	     18.08587491	      9.16554031	     20.03752748	     52.59030534	     32.47904156	     37.21606681	     39.86624267	     67.71071819	     31.64689170	    152.71623098	     92.44382289	     14.93387438	     15.26933008	     41.82280852	     21.62318228	     46.40390219	      8.85843606	     25.04430450	      7.95889966	    124.85348054	    124.85348054	     44.95695761	     44.95695761	     60.96832374	     60.96832374	    145.17776676	    291.49537943	     11.78985620	    -12.39378034	      3.73414442	     60.55675091	   -145.17776676	   -291.49537943	    -11.78985620	      9.37969170	     -4.48566476	     -4.86112993	    -47.25725964	    137.90543768	     -7.24519493	      5.53260054	      1.01592008	    -16.58765395	     47.25725964	   -137.90543768	      7.24519493	     -2.02085401	     -0.77371814	     -1.70785843	      0.00000000	      0.00000000	      0.00000000	      0.00000000	      0.00000000	      0.00000000	      0.00000000	      0.00000000	      0.00000000	      0.00000000	      0.00000000	      0.00000000	      0.00000000	      0.00000000	      0.00000000	      0.00000000	      0.00000000	      0.00000000	      0.00000000	      0.00000000	      0.00000000	      0.00000000	      0.00000000	      0.00000000	     -1.67080415	      3.26719203	      0.00000000	      0.00000000	      0.00000000	     -7.03289884	      5.11854090	    -13.45587830	      0.00000000	    -12.52611965	    110.00000000	      0.00000000	      0.00000000	      0.03000000	     -0.03000000	      0.00000000
      0.00177593	     37.44888609	     28.23488560	     30.20905996	     13.22998917	     14.44123557	     15.90290186	     41.02930878	     19.92957186	     37.23505578	     34.20521828	      7.24073183	     27.89663687	     20.55752567	     14.48570551	     12.14627852	     19.65383085	     12.37995676	     11.12754286	      7.45598512	     18.09880375	     27.51740329	     20.53824154	     63.87658488	     55.70536912	     18.05152820	      9.16061337	     20.03315295	     51.64982091	     30.76581271	     31.37997171	     38.96180599	     63.99801652	     30.09017466	    144.05401158	     91.95402510	     15.13527793	     15.37665874	     44.62776736	     21.04810387	     45.66046433	      9.43705015	     25.41827630	      8.12089040	     37.44888609	     28.23488560	     30.20905996	     13.22998917	     14.44123557	     15.90290186	     42.05244142	     20.37709699	     37.66025910	     35.92855076	      7.55264816	     27.89663687	     20.55752567	     14.48570551	     12.14627852	     19.65383085	     12.57802737	     11.12754286	      7.75793625	     18.09880375	     27.51740329	     20.53824154	     63.87658488	     55.70536912	     18.05152820	      9.16061337	     20.03315295	     52.57206810	     32.45291420	     37.19006813	     39.83975631	     67.70004542	     31.64181478	    152.68309499	     92.43544635	     14.93550988	     15.27041394	     41.80567083	     21.61700932	     46.39770678	      8.85200838	     25.03268670	      7.95425128	    124.46885377	    124.46885377	     44.91718573	     44.91718573	     60.92547717	     60.92547717	    152.05661265	    304.31852180	     16.75495857	    -14.77205004	      3.89993034	     63.41929446	   -152.05661265	   -304.31852180	    -16.75495857	      9.90758396	     -4.68101283	     -5.08598978	    -51.27383873	    150.81365419	     -6.19246041	      5.34330797	      1.07003003	    -17.97518849	     51.27383873	   -150.81365419	      6.19246041	     -2.17238021	     -0.80703298	     -1.87509472	      0.00000000	      0.00000000	      0.00000000	      0.00000000	      0.00000000	      0.00000000	      0.00000000	      0.00000000	      0.00000000	      0.00000000	      0.00000000	      0.00000000	      0.00000000	      0.00000000	      0.00000000	      0.00000000	      0.00000000	      0.00000000	      0.00000000	      0.00000000	      0.00000000	      0.00000000	      0.00000000	      0.00000000	     -2.98944878	      1.28151941	      0.00000000	      0.00000000	      0.00000000	     -6.25480489	      5.93890888	    -12.38615770	      0.00000000	    -11.32528161	    110.00000000	      0.00000000	      0.00000000	      0.03000000	     -0.03000000	      0.00000000
      0.00312421	     37.38277395	     28.13139583	     30.11493809	     13.12488676	     14.37373686	     15.87352859	     40.34663679	     19.53283979	     36.90934371	     33.26261237	      7.06091197	     27.81101899	     20.34537332	     14.43315052	     12.11381584	     19.62604808	     12.21997103	     11.05651550	      7.24799591	     18.04260763	     27.43319447	     20.48458573	     63.73015645	     55.61783279	     17.96251884	      9.14699524	     20.02082837	     50.91134914	     29.43535661	     30.03473912	     37.54404382	     58.82092903	     27.71621676	    129.14291695	     91.05223114	     15.54419096	     15.60771305	     49.99555090	     20.02271802	     44.29810707	     10.50306183	     26.04658917	      8.39459846	     37.38277395	     28.13139583	     30.11493809	     13.12488676	     14.37373686	     15.87352859	     42.02204465	     20.33745205	     37.62648043	     35.75590280	      7.48496985	     27.81101899	     20.34537332	     14.43315052	     12.11381584	     19.62604808	     12.57089533	     11.05651550	      7.71260110	     18.04260763	     27.43319447	     20.48458573	     63.73015645	     55.61783279	     17.96251884	      9.14699524	     20.02082837	     52.52100586	     32.38138594	     37.11852160	     39.76674879	     67.66988900	     31.62747104	    152.58973129	     92.41173523	     14.93993553	     15.27327840	     41.75783233	     21.59967169	     46.38017787	      8.83435385	     25.00040646	      7.94138113	    123.53222928	    123.53222928	     44.80870323	     44.80870323	     60.80920109	     60.80920109	    152.92142400	    303.07247774	     23.21037493	    -17.39447934	      3.90327882	     63.77330775	   -152.92142400	   -303.07247774	    -23.21037493	     10.02451546	     -4.67737984	     -5.10841805	    -52.15327172	    155.13428412	     -4.07870855	      4.56325969	      1.04893193	    -18.25207432	     52.15327172	   -155.13428412	      4.07870855	     -2.19086883	     -0.78221240	     -1.93828771	      0.00000000	      0.00000000	      0.00000000	      0.00000000	      0.00000000	      0.00000000	      0.00000000	      0.00000000	      0.00000000	      0.00000000	      0.00000000	      0.00000000	      0.00000000	      0.00000000	      0.00000000	      0.00000000	      0.00000000	      0.00000000	      0.00000000	      0.00000000	      0.00000000	      0.00000000	      0.00000000	      0.00000000	     -2.09726845	      1.46473319	      0.00000000	      0.00000000	      0.00000000	     -1.98303542	     10.28635264	     -7.25350522	      0.00000000	     -5.96293129	    110.00000000	      0.00000000	      0.00000000	      0.03000000	     -0.03000000	      0.00000000
